# xmcd CD database file
#
# Track frame offsets:
#	150
#	18485
#	37591
#
# Disc length: 743 seconds
#
# Revision: 0
# Processed by: cddbd v1.5PL3 Copyright (c) Steve Scherf et al.
# Submitted via: CDex 1.51
#
DISCID=1402e503
DTITLE=Shania Twain - Thank You Baby! (For Makin' Someday Come So Soon) (Red Version) (Single)
DYEAR=2003
DGENRE=Country
TTITLE0=Thank You Baby! (For Makin' Someday Come So Soon) (Red Version)
TTITLE1=From This Moment On (Live)
TTITLE2=Thank You Baby! (For Makin' Someday Come So Soon) (Green Version)
EXTD=YEAR: 2003
EXTT0=
EXTT1=
EXTT2=
PLAYORDER=
